<svg xmlns="http://www.w3.org/2000/svg" viewBox="0 0 46 45" width="46" height="45"><defs></defs><g transform="matrix(1,0,0,1,-1.559801003,-2.246110702)">
<g>
	<g>
		<path d="M1.5598010026541331,4.117869620310657 C1.5598010026541331,3.0850615415078977 2.4139678887634233,2.2461107019876323 3.4655080017978506,2.2461107019876323 L46.53449199820215,2.2461107019876323 C47.58603211123658,2.2461107019876323 48.44019899734587,3.0850615415078977 48.44019899734587,4.117869620310657 L48.44019899734587,46.04526939074643 C48.44019899734587,47.078077469549186 47.58603211123658,47.91702830906945 46.53449199820215,47.91702830906945 L3.4655080017978506,47.91702830906945 C2.4139678887634233,47.91702830906945 1.5598010026541331,47.078077469549186 1.5598010026541331,46.04526939074643 L1.5598010026541331,4.117869620310657 Z" fill="#7673f4" stroke="#7774f5" stroke-width="2"/>
	</g>
	<g>
		<path d="M22.999999999999773,13.500046107990617 C22.73243045806862,13.49641475461232 22.474566459655534,13.600163076145524 22.284068107604753,13.78809151433217 C22.09357070922829,13.976019952518815 21.986330032348405,14.232452008945817 21.986328124999773,14.500046107990617 C21.986328124999773,14.500046107990617 15.999999999999773,14.500046107990617 15.999999999999773,14.500046107990617 C15.639364242553484,14.494945857746476 15.30391883850075,14.684421394092912 15.122112274169695,14.995919082386369 C14.94030570983864,15.307416293842667 14.94030570983864,15.692675922138566 15.122112274169695,16.004173133594865 C15.30391883850075,16.31567082188832 15.639364242553484,16.505146358234757 15.999999999999773,16.500046107990617 C15.999999999999773,16.500046107990617 33.99999999999977,16.500046107990617 33.99999999999977,16.500046107990617 C34.36063575744606,16.505146358234757 34.696081161498796,16.31567082188832 34.87788772582985,16.004173133594865 C35.059694290160905,15.692675922138566 35.059694290160905,15.307416293842667 34.87788772582985,14.995919082386369 C34.696081161498796,14.684421394092912 34.36063575744606,14.494945857746476 33.99999999999977,14.500046107990617 C33.99999999999977,14.500046107990617 28.013671874999773,14.500046107990617 28.013671874999773,14.500046107990617 C28.01366996765114,14.232452008945817 27.906429290771257,13.976019952518815 27.715930938720476,13.78809151433217 C27.525434494018327,13.600163076145524 27.26756858825661,13.49641475461232 26.999999999999773,13.500046107990617 C26.999999999999773,13.500046107990617 22.999999999999773,13.500046107990617 22.999999999999773,13.500046107990617 C22.999999999999773,13.500046107990617 22.999999999999773,13.500046107990617 22.999999999999773,13.500046107990617 ZM15.999999999999773,18.500046107990617 C15.999999999999773,18.500046107990617 15.999999999999773,34.50004610799061 15.999999999999773,34.50004610799061 C15.999999999999773,35.60504565022694 16.894999980926286,36.50004610799061 17.999999999999773,36.50004610799061 C17.999999999999773,36.50004610799061 31.999999999999773,36.50004610799061 31.999999999999773,36.50004610799061 C33.1049995422361,36.50004610799061 33.99999999999977,35.60504565022694 33.99999999999977,34.50004610799061 C33.99999999999977,34.50004610799061 33.99999999999977,18.500046107990617 33.99999999999977,18.500046107990617 C33.99999999999977,18.500046107990617 15.999999999999773,18.500046107990617 15.999999999999773,18.500046107990617 C15.999999999999773,18.500046107990617 15.999999999999773,18.500046107990617 15.999999999999773,18.500046107990617 Z" fill="#000000"/>
	</g>
</g></g></svg>